<svg width="242" height="74" viewBox="0 0 242 74" fill="none" xmlns="http://www.w3.org/2000/svg">
<path d="M114.68 32.18C113.96 30.524 112.856 29.228 111.368 28.292C109.904 27.332 108.176 26.852 106.184 26.852C104.312 26.852 102.632 27.284 101.144 28.148C99.656 29.012 98.48 30.248 97.616 31.856C96.752 33.44 96.32 35.288 96.32 37.4C96.32 39.512 96.752 41.372 97.616 42.98C98.48 44.588 99.656 45.824 101.144 46.688C102.632 47.552 104.312 47.984 106.184 47.984C107.936 47.984 109.508 47.612 110.9 46.868C112.316 46.1 113.444 45.02 114.284 43.628C115.148 42.212 115.64 40.568 115.76 38.696H105.176V36.644H118.424V38.48C118.304 40.688 117.704 42.692 116.624 44.492C115.544 46.268 114.092 47.672 112.268 48.704C110.468 49.736 108.44 50.252 106.184 50.252C103.856 50.252 101.744 49.712 99.848 48.632C97.952 47.528 96.452 46.004 95.348 44.06C94.268 42.092 93.728 39.872 93.728 37.4C93.728 34.928 94.268 32.72 95.348 30.776C96.452 28.808 97.952 27.284 99.848 26.204C101.744 25.1 103.856 24.548 106.184 24.548C108.872 24.548 111.224 25.22 113.24 26.564C115.256 27.908 116.72 29.78 117.632 32.18H114.68ZM140.824 39.164C140.824 40.028 140.8 40.688 140.752 41.144H124.444C124.516 42.632 124.876 43.904 125.524 44.96C126.172 46.016 127.024 46.82 128.08 47.372C129.136 47.9 130.288 48.164 131.536 48.164C133.168 48.164 134.536 47.768 135.64 46.976C136.768 46.184 137.512 45.116 137.872 43.772H140.536C140.056 45.692 139.024 47.264 137.44 48.488C135.88 49.688 133.912 50.288 131.536 50.288C129.688 50.288 128.032 49.88 126.568 49.064C125.104 48.224 123.952 47.048 123.112 45.536C122.296 44 121.888 42.212 121.888 40.172C121.888 38.132 122.296 36.344 123.112 34.808C123.928 33.272 125.068 32.096 126.532 31.28C127.996 30.464 129.664 30.056 131.536 30.056C133.408 30.056 135.04 30.464 136.432 31.28C137.848 32.096 138.928 33.2 139.672 34.592C140.44 35.96 140.824 37.484 140.824 39.164ZM138.268 39.092C138.292 37.628 137.992 36.38 137.368 35.348C136.768 34.316 135.94 33.536 134.884 33.008C133.828 32.48 132.676 32.216 131.428 32.216C129.556 32.216 127.96 32.816 126.64 34.016C125.32 35.216 124.588 36.908 124.444 39.092H138.268ZM144.283 40.136C144.283 38.12 144.679 36.356 145.471 34.844C146.287 33.308 147.403 32.132 148.819 31.316C150.259 30.476 151.879 30.056 153.679 30.056C155.551 30.056 157.159 30.488 158.503 31.352C159.871 32.216 160.855 33.32 161.455 34.664V30.344H163.975V50H161.455V45.644C160.831 46.988 159.835 48.104 158.467 48.992C157.123 49.856 155.515 50.288 153.643 50.288C151.867 50.288 150.259 49.868 148.819 49.028C147.403 48.188 146.287 47 145.471 45.464C144.679 43.928 144.283 42.152 144.283 40.136ZM161.455 40.172C161.455 38.588 161.131 37.196 160.483 35.996C159.835 34.796 158.947 33.872 157.819 33.224C156.715 32.576 155.491 32.252 154.147 32.252C152.755 32.252 151.507 32.564 150.403 33.188C149.299 33.812 148.423 34.724 147.775 35.924C147.151 37.1 146.839 38.504 146.839 40.136C146.839 41.744 147.151 43.16 147.775 44.384C148.423 45.584 149.299 46.508 150.403 47.156C151.507 47.78 152.755 48.092 154.147 48.092C155.491 48.092 156.715 47.768 157.819 47.12C158.947 46.472 159.835 45.548 160.483 44.348C161.131 43.148 161.455 41.756 161.455 40.172ZM172.248 33.836C172.8 32.612 173.64 31.664 174.768 30.992C175.92 30.32 177.324 29.984 178.98 29.984V32.612H178.296C176.472 32.612 175.008 33.104 173.904 34.088C172.8 35.072 172.248 36.716 172.248 39.02V50H169.728V30.344H172.248V33.836ZM202.571 32.18C201.851 30.524 200.747 29.228 199.259 28.292C197.795 27.332 196.067 26.852 194.075 26.852C192.203 26.852 190.523 27.284 189.035 28.148C187.547 29.012 186.371 30.248 185.507 31.856C184.643 33.44 184.211 35.288 184.211 37.4C184.211 39.512 184.643 41.372 185.507 42.98C186.371 44.588 187.547 45.824 189.035 46.688C190.523 47.552 192.203 47.984 194.075 47.984C195.827 47.984 197.399 47.612 198.791 46.868C200.207 46.1 201.335 45.02 202.175 43.628C203.039 42.212 203.531 40.568 203.651 38.696H193.067V36.644H206.315V38.48C206.195 40.688 205.595 42.692 204.515 44.492C203.435 46.268 201.983 47.672 200.159 48.704C198.359 49.736 196.331 50.252 194.075 50.252C191.747 50.252 189.635 49.712 187.739 48.632C185.843 47.528 184.343 46.004 183.239 44.06C182.159 42.092 181.619 39.872 181.619 37.4C181.619 34.928 182.159 32.72 183.239 30.776C184.343 28.808 185.843 27.284 187.739 26.204C189.635 25.1 191.747 24.548 194.075 24.548C196.763 24.548 199.115 25.22 201.131 26.564C203.147 27.908 204.611 29.78 205.523 32.18H202.571ZM219.535 50.288C217.687 50.288 216.019 49.88 214.531 49.064C213.067 48.224 211.903 47.048 211.039 45.536C210.199 44 209.779 42.212 209.779 40.172C209.779 38.132 210.211 36.356 211.075 34.844C211.939 33.308 213.115 32.132 214.603 31.316C216.091 30.476 217.759 30.056 219.607 30.056C221.455 30.056 223.123 30.476 224.611 31.316C226.123 32.132 227.299 33.308 228.139 34.844C229.003 36.356 229.435 38.132 229.435 40.172C229.435 42.188 229.003 43.964 228.139 45.5C227.275 47.036 226.087 48.224 224.575 49.064C223.063 49.88 221.383 50.288 219.535 50.288ZM219.535 48.092C220.831 48.092 222.031 47.804 223.135 47.228C224.239 46.628 225.127 45.74 225.799 44.564C226.495 43.364 226.843 41.9 226.843 40.172C226.843 38.444 226.507 36.992 225.835 35.816C225.163 34.616 224.275 33.728 223.171 33.152C222.067 32.552 220.867 32.252 219.571 32.252C218.275 32.252 217.075 32.552 215.971 33.152C214.867 33.728 213.979 34.616 213.307 35.816C212.659 36.992 212.335 38.444 212.335 40.172C212.335 41.9 212.659 43.364 213.307 44.564C213.979 45.74 214.855 46.628 215.935 47.228C217.039 47.804 218.239 48.092 219.535 48.092Z" fill="black"/>
<path d="M34.7305 23.1199C34.1086 23.3772 33.1866 23.9562 31.8035 24.9587C29.4126 26.6956 28.5495 27.2692 27.74 27.6605C27.1182 27.9607 26.7322 28.0626 26.4052 28.0143C26.1854 27.9821 26.0621 27.9124 25.5207 27.5318C25.2366 27.3335 25.0114 27.3388 24.47 27.5533C22.7706 28.2287 19.9991 29.8906 16.402 32.3833C13.8771 34.1417 11.6953 35.5194 10.3015 36.2431C9.94229 36.4307 9.66889 36.5915 9.70106 36.6023C9.819 36.6451 10.666 36.4361 11.4165 36.1841C12.2635 35.9054 13.5233 35.4068 15.7855 34.4687C19.0717 33.1017 20.5512 32.5924 21.6288 32.4584L21.8968 32.4262L22.6795 32.9837C23.5854 33.627 24.3896 34.1202 24.7755 34.265C24.9632 34.3346 25.1615 34.3615 25.4295 34.3561C25.8959 34.34 26.5231 34.5116 27.4023 34.8922C30.2328 36.1091 30.7581 36.302 31.573 36.4253C31.8517 36.4682 32.554 36.5754 33.1276 36.6666C33.7012 36.7524 34.2212 36.8274 34.2802 36.8274C34.3767 36.822 34.3713 36.8167 34.2534 36.7524C34.1783 36.7095 33.5136 36.4361 32.7792 36.1412C30.6938 35.3049 30.801 35.3693 30.2757 34.7581C29.8093 34.2221 29.493 33.9272 29.0534 33.627C28.7371 33.4072 28.6085 33.2625 28.4423 32.9408C27.9223 31.9009 28.3083 30.8394 29.3483 30.4535C29.9219 30.239 30.2221 30.2658 31.3318 30.6357C32.1895 30.9252 32.8113 31.1879 34.8967 32.1635C36.5907 32.9569 37.5074 33.3375 38.0434 33.4716C38.4187 33.5627 38.8636 33.6109 38.8636 33.5627C38.8636 33.5413 38.6653 33.4072 38.424 33.2625C36.1779 31.9491 35.674 31.606 34.9985 30.9306C34.248 30.1854 34.1033 29.8316 34.2587 29.1133C34.3338 28.7648 34.2587 28.4164 33.9746 27.698C33.7816 27.2209 33.7602 27.1244 33.7816 26.8028C33.7977 26.4811 33.8245 26.3954 34.0068 26.1327C34.2319 25.811 34.6554 25.4465 35.0682 25.2213L35.3255 25.082L35.5936 25.2267C36.1672 25.5376 37.3251 26.4597 39.9036 28.6522C40.3378 29.0221 40.7881 29.3867 40.9061 29.4563C41.0187 29.5314 41.7316 29.9067 42.4929 30.298C44.2029 31.1664 44.7229 31.4881 45.0178 31.8312C45.3126 32.1903 46.1489 32.8819 46.4706 33.0481C46.8673 33.2464 47.5105 33.7825 47.8215 34.1738C47.9769 34.3668 48.111 34.5116 48.1217 34.5008C48.1538 34.4687 47.9823 34.0398 47.8054 33.7021C47.6285 33.3697 47.2961 33.0105 46.685 32.4745C46.4491 32.2761 46.2776 32.0617 46.1543 31.8365C46.0363 31.6114 45.7469 31.2629 45.2912 30.7858C44.6104 30.0836 44.278 29.6225 44.278 29.392C44.278 29.199 44.4978 29.0972 44.8999 29.0972C45.2269 29.0972 45.3126 29.124 45.8594 29.392C46.744 29.8316 48.2557 30.8662 50.1909 32.3404C50.7002 32.7318 51.1398 32.7747 52.1422 32.5281L52.6462 32.4101L52.8928 32.5388C53.0429 32.6192 53.3591 32.9087 53.7076 33.2893C54.8173 34.4955 55.3587 34.9243 56.388 35.4175C57.0849 35.7553 57.3529 35.9643 58.2053 36.8757C59.4222 38.1783 59.8725 38.5268 60.43 38.5965C60.5694 38.6179 60.6819 38.6179 60.6819 38.6018C60.6819 38.5857 60.5372 38.4785 60.3549 38.3606C59.8725 38.0497 59.5347 37.6422 59.2077 36.9561C59.0523 36.6344 58.8593 36.2913 58.7842 36.2002C58.7092 36.1091 58.3607 35.8625 58.0176 35.6427C57.0795 35.0637 56.4523 34.5759 56.0127 34.0827C54.8387 32.78 54.0292 32.1099 53.1018 31.6757C52.7427 31.5095 52.7266 31.5042 52.1637 31.5417C51.8528 31.5578 51.5472 31.5846 51.4882 31.5953C51.2792 31.6328 50.7538 31.5149 50.4161 31.3541C49.746 31.0271 48.899 30.3141 47.1192 28.604C45.4735 27.0118 44.9052 26.6098 44.219 26.5508C43.817 26.5133 43.5007 26.6044 43.0826 26.8725C42.3803 27.3281 42.0533 27.3871 41.544 27.1459C41.1634 26.969 40.8471 26.7277 39.9143 25.9022C38.9655 25.0552 38.7135 24.8622 38.0059 24.4279C37.695 24.2403 37.1321 23.8865 36.7568 23.6506C35.6901 22.9752 35.3202 22.8787 34.7305 23.1199Z" fill="black"/>
<path d="M63.8822 30.6841C64.3218 30.9361 65.0562 31.4668 65.469 31.8313C68.6051 34.5975 68.8731 38.6502 66.1069 41.5021C64.4773 43.1908 62.3222 44.1503 59.3417 44.5256C58.5429 44.6221 56.3396 44.665 55.3479 44.5953C51.8151 44.354 48.5504 43.684 42.2944 41.9203C39.3192 41.0786 33.2615 39.5562 30.2595 38.8914C25.4294 37.8193 23.119 37.5244 19.806 37.5512C17.7636 37.5673 17.2168 37.6102 15.6246 37.8836C11.7595 38.543 8.08201 40.2799 4.84946 42.9656C4.33483 43.3945 3 44.6006 3 44.6382C3 44.6543 3.11258 44.5792 3.25196 44.472C3.76659 44.086 5.18719 43.1586 5.8144 42.8101C9.07911 40.9714 12.9657 39.8671 17.0184 39.6312C17.9137 39.5776 20.3206 39.5776 21.366 39.6312C24.0142 39.7652 27.3593 40.2691 30.7956 41.0625C34.1407 41.8345 36.8372 42.6064 43.715 44.7775C49.9925 46.761 52.5925 47.4687 55.3211 47.9458C58.0819 48.4282 60.8802 48.5033 63.2282 48.1602C67.7634 47.5008 71.1407 45.2868 72.497 42.0811C73.6763 39.3096 73.1349 36.2915 71.0496 33.9542C69.6022 32.3352 67.2005 31.1183 64.5202 30.6627C63.6785 30.5179 63.5981 30.5233 63.8822 30.6841Z" fill="black"/>
<path d="M63.0136 32.5497C63.9303 33.5629 64.3859 34.6779 64.3859 35.943C64.3859 38.9344 61.7752 41.4968 57.9369 42.2634C57.0149 42.451 56.4949 42.51 55.4763 42.5529L54.5972 42.5904L55.0904 42.7137C55.9856 42.9335 56.6343 43.0032 57.6796 43.0032C58.7839 43.0032 59.3736 42.9335 60.3922 42.6708C62.9492 42.0114 65.0667 40.3764 65.8441 38.4465C66.1657 37.6531 66.2568 36.6667 66.0746 35.8948C65.8333 34.8709 65.1043 33.8095 64.1233 33.059C63.7802 32.7909 62.842 32.2173 62.7563 32.2173C62.7295 32.2173 62.8474 32.3674 63.0136 32.5497Z" fill="black"/>
<path d="M73.3705 33.8791C74.2122 35.2461 74.7161 36.6291 74.9144 38.1302C75.0109 38.8485 74.9305 40.1404 74.7482 40.9446C74.5016 42.0006 73.8798 43.3784 73.2526 44.2575C71.4835 46.7235 68.6531 48.5676 65.3187 49.4253C64.0803 49.7416 63.1207 49.8542 61.4589 49.881C60.2903 49.897 59.8936 49.881 58.4301 49.7737C58.087 49.7523 57.9958 49.7577 58.0709 49.8006C58.2907 49.9399 59.6738 50.3473 60.4028 50.4974C61.6733 50.7494 62.1826 50.7923 63.8176 50.7869C65.4312 50.7816 66.1281 50.7119 67.4898 50.4117C70.5347 49.7362 73.1829 48.1119 74.893 45.8604C76.6245 43.5874 77.316 40.9821 76.8657 38.4625C76.7907 38.0497 76.5334 37.2456 76.3297 36.7953C75.8204 35.6535 74.759 34.5224 73.6278 33.9005L73.2579 33.6968L73.3705 33.8791Z" fill="black"/>
<path d="M52.7104 34.4259C52.7211 34.4634 52.7747 34.6886 52.8283 34.9245C53.0052 35.7339 53.0159 35.75 53.1928 35.8787C53.2893 35.9537 53.6271 36.1253 53.9487 36.27C54.9512 36.7096 55.3372 37.0152 55.6802 37.6263C55.8893 37.9962 55.9858 37.9908 55.9 37.6156C55.766 37.0152 55.0638 36.2003 54.4902 35.9805C54.0506 35.809 53.9112 35.6911 53.3054 34.9781C52.823 34.4206 52.6407 34.2436 52.7104 34.4259Z" fill="black"/>
<path d="M42.1068 34.6832C41.9889 34.7636 41.6297 34.9298 41.3027 35.0477C40.4664 35.3533 40.0858 35.5302 39.2817 36.0019C38.8904 36.2324 38.2417 36.5755 37.845 36.7631C37.4483 36.9508 36.9283 37.1974 36.6925 37.3099C36.2636 37.5136 35.9688 37.7066 35.9688 37.787C35.9688 37.8299 36.923 37.5726 37.7378 37.3046C38.3543 37.1009 39.1262 36.7792 39.598 36.5273C40.1716 36.2217 40.252 36.3075 39.8392 36.7792C39.598 37.0419 39.4532 37.2563 39.4532 37.3314C39.4532 37.4172 39.6302 37.3367 40.118 37.0258C40.8149 36.5862 40.9114 36.538 41.6458 36.2592L42.2569 36.0287L42.6107 36.1413C43.1897 36.3236 43.3291 36.42 43.908 37.0473C44.2136 37.3743 44.5513 37.6852 44.6532 37.7388C44.9695 37.8996 45.3983 37.9961 46.0738 38.0604C46.9047 38.1409 48.2932 38.3874 49.2045 38.6233C49.6012 38.7252 49.9335 38.8002 49.9443 38.7895C49.9764 38.7573 49.4725 38.4035 49.1723 38.2534C48.7863 38.0604 48.2771 37.8943 47.0816 37.5833C45.1678 37.0794 44.755 36.865 44.0581 36.0126C43.6346 35.4926 43.1254 35.0155 42.6536 34.6939C42.5196 34.5974 42.3909 34.5223 42.3641 34.5277C42.3427 34.5277 42.2248 34.5974 42.1068 34.6832Z" fill="black"/>
<path d="M16.7716 41.1376C16.7608 41.1483 16.4392 41.1698 16.0532 41.1912C13.0137 41.336 10.017 42.0865 7.54033 43.3194C6.84879 43.6625 5.77127 44.279 5.80344 44.3165C5.81416 44.3219 6.02323 44.2469 6.27519 44.1396C7.79764 43.4963 10.3118 42.8102 12.1184 42.5421C14.3431 42.2098 17.2862 42.1562 19.4841 42.4081C23.3653 42.8477 24.9843 43.2015 30.8221 44.8687C36.2312 46.418 38.606 46.9648 41.1148 47.2542C41.9779 47.3561 43.8006 47.4043 44.2509 47.34C44.4278 47.3132 44.5511 47.2918 44.5189 47.2864C41.088 46.8147 39.0134 46.2518 33.8778 44.413C31.5512 43.5768 29.5731 42.912 28.5706 42.6225C25.7401 41.8131 22.8989 41.336 19.9398 41.1751C19.1249 41.1322 16.8091 41.1054 16.7716 41.1376Z" fill="black"/>
</svg>
