<svg xmlns="http://www.w3.org/2000/svg" width="80" height="74" viewBox="0 0 80 74" fill="none">
  <path d="M34.7302 23.1199C34.1084 23.3772 33.1863 23.9562 31.8033 24.9587C29.4124 26.6956 28.5493 27.2692 27.7398 27.6605C27.1179 27.9607 26.732 28.0626 26.405 28.0143C26.1852 27.9821 26.0619 27.9124 25.5204 27.5318C25.2363 27.3335 25.0112 27.3388 24.4697 27.5533C22.7704 28.2287 19.9988 29.8906 16.4018 32.3833C13.8769 34.1417 11.695 35.5194 10.3012 36.2431C9.94205 36.4307 9.66865 36.5915 9.70081 36.6023C9.81875 36.6451 10.6658 36.4361 11.4163 36.1841C12.2633 35.9054 13.523 35.4068 15.7853 34.4687C19.0714 33.1017 20.551 32.5924 21.6285 32.4584L21.8966 32.4262L22.6792 32.9837C23.5852 33.627 24.3893 34.1202 24.7753 34.265C24.9629 34.3346 25.1613 34.3615 25.4293 34.3561C25.8957 34.34 26.5229 34.5116 27.4021 34.8922C30.2325 36.1091 30.7579 36.302 31.5727 36.4253C31.8515 36.4682 32.5538 36.5754 33.1274 36.6666C33.701 36.7524 34.221 36.8274 34.2799 36.8274C34.3764 36.822 34.3711 36.8167 34.2531 36.7524C34.1781 36.7095 33.5133 36.4361 32.7789 36.1412C30.6936 35.3049 30.8008 35.3693 30.2754 34.7581C29.809 34.2221 29.4928 33.9272 29.0532 33.627C28.7369 33.4072 28.6082 33.2625 28.4421 32.9408C27.9221 31.9009 28.308 30.8394 29.348 30.4535C29.9216 30.239 30.2218 30.2658 31.3315 30.6357C32.1892 30.9252 32.8111 31.1879 34.8964 32.1635C36.5904 32.9569 37.5071 33.3375 38.0432 33.4716C38.4184 33.5627 38.8634 33.6109 38.8634 33.5627C38.8634 33.5413 38.665 33.4072 38.4238 33.2625C36.1776 31.9491 35.6737 31.606 34.9983 30.9306C34.2478 30.1854 34.103 29.8316 34.2585 29.1133C34.3335 28.7648 34.2585 28.4164 33.9744 27.698C33.7814 27.2209 33.7599 27.1244 33.7814 26.8028C33.7975 26.4811 33.8243 26.3954 34.0065 26.1327C34.2317 25.811 34.6552 25.4465 35.068 25.2213L35.3253 25.082L35.5933 25.2267C36.1669 25.5376 37.3248 26.4597 39.9034 28.6522C40.3376 29.0221 40.7879 29.3867 40.9058 29.4563C41.0184 29.5314 41.7314 29.9067 42.4926 30.298C44.2027 31.1664 44.7227 31.4881 45.0175 31.8312C45.3124 32.1903 46.1487 32.8819 46.4703 33.0481C46.867 33.2464 47.5103 33.7825 47.8212 34.1738C47.9767 34.3668 48.1107 34.5116 48.1214 34.5008C48.1536 34.4687 47.982 34.0398 47.8051 33.7021C47.6282 33.3697 47.2959 33.0105 46.6847 32.4745C46.4489 32.2761 46.2773 32.0617 46.154 31.8365C46.0361 31.6114 45.7466 31.2629 45.2909 30.7858C44.6101 30.0836 44.2778 29.6225 44.2778 29.392C44.2778 29.199 44.4976 29.0972 44.8996 29.0972C45.2266 29.0972 45.3124 29.124 45.8592 29.392C46.7437 29.8316 48.2554 30.8662 50.1907 32.3404C50.7 32.7318 51.1395 32.7747 52.142 32.5281L52.6459 32.4101L52.8925 32.5388C53.0426 32.6192 53.3589 32.9087 53.7073 33.2893C54.817 34.4955 55.3585 34.9243 56.3877 35.4175C57.0846 35.7553 57.3527 35.9643 58.205 36.8757C59.4219 38.1783 59.8722 38.5268 60.4297 38.5965C60.5691 38.6179 60.6817 38.6179 60.6817 38.6018C60.6817 38.5857 60.537 38.4785 60.3547 38.3606C59.8722 38.0497 59.5345 37.6422 59.2075 36.9561C59.052 36.6344 58.859 36.2913 58.784 36.2002C58.7089 36.1091 58.3605 35.8625 58.0174 35.6427C57.0793 35.0637 56.4521 34.5759 56.0125 34.0827C54.8385 32.78 54.029 32.1099 53.1016 31.6757C52.7424 31.5095 52.7263 31.5042 52.1634 31.5417C51.8525 31.5578 51.547 31.5846 51.488 31.5953C51.2789 31.6328 50.7536 31.5149 50.4158 31.3541C49.7457 31.0271 48.8987 30.3141 47.119 28.604C45.4732 27.0118 44.905 26.6098 44.2188 26.5508C43.8167 26.5133 43.5004 26.6044 43.0823 26.8725C42.38 27.3281 42.053 27.3871 41.5438 27.1459C41.1632 26.969 40.8469 26.7277 39.9141 25.9022C38.9652 25.0552 38.7133 24.8622 38.0057 24.4279C37.6947 24.2403 37.1319 23.8865 36.7566 23.6506C35.6898 22.9752 35.3199 22.8787 34.7302 23.1199Z" fill="black"/>
  <path d="M63.8822 30.6836C64.3218 30.9356 65.0562 31.4663 65.469 31.8308C68.6051 34.597 68.8731 38.6497 66.1069 41.5016C64.4773 43.1903 62.3222 44.1499 59.3417 44.5251C58.5429 44.6216 56.3396 44.6645 55.3479 44.5948C51.8151 44.3536 48.5504 43.6835 42.2944 41.9198C39.3192 41.0781 33.2615 39.5557 30.2595 38.8909C25.4294 37.8188 23.119 37.5239 19.806 37.5507C17.7636 37.5668 17.2168 37.6097 15.6246 37.8831C11.7595 38.5425 8.08201 40.2794 4.84946 42.9651C4.33483 43.394 3 44.6002 3 44.6377C3 44.6538 3.11258 44.5787 3.25196 44.4715C3.76659 44.0855 5.18719 43.1581 5.8144 42.8097C9.07911 40.9709 12.9657 39.8666 17.0184 39.6307C17.9137 39.5771 20.3206 39.5771 21.366 39.6307C24.0142 39.7647 27.3593 40.2687 30.7956 41.062C34.1407 41.834 36.8372 42.606 43.715 44.7771C49.9925 46.7605 52.5925 47.4682 55.3211 47.9453C58.0819 48.4277 60.8802 48.5028 63.2282 48.1597C67.7634 47.5003 71.1407 45.2863 72.497 42.0806C73.6763 39.3091 73.1349 36.291 71.0496 33.9537C69.6022 32.3347 67.2005 31.1178 64.5202 30.6622C63.6785 30.5174 63.5981 30.5228 63.8822 30.6836Z" fill="black"/>
  <path d="M63.0131 32.5494C63.9298 33.5626 64.3854 34.6777 64.3854 35.9428C64.3854 38.9341 61.7747 41.4966 57.9364 42.2631C57.0144 42.4508 56.4944 42.5097 55.4758 42.5526L54.5967 42.5902L55.0899 42.7134C55.9851 42.9332 56.6338 43.0029 57.6791 43.0029C58.7834 43.0029 59.3731 42.9332 60.3917 42.6706C62.9488 42.0112 65.0663 40.3762 65.8436 38.4463C66.1652 37.6529 66.2563 36.6665 66.0741 35.8946C65.8328 34.8706 65.1038 33.8092 64.1228 33.0587C63.7797 32.7907 62.8415 32.2171 62.7558 32.2171C62.729 32.2171 62.8469 32.3672 63.0131 32.5494Z" fill="black"/>
  <path d="M73.371 33.8788C74.2127 35.2458 74.7166 36.6289 74.9149 38.1299C75.0114 38.8483 74.931 40.1402 74.7487 40.9443C74.5021 42.0004 73.8803 43.3781 73.2531 44.2573C71.484 46.7232 68.6535 48.5673 65.3191 49.4251C64.0808 49.7413 63.1212 49.8539 61.4594 49.8807C60.2907 49.8968 59.894 49.8807 58.4306 49.7735C58.0875 49.7521 57.9963 49.7574 58.0714 49.8003C58.2912 49.9397 59.6743 50.3471 60.4033 50.4972C61.6738 50.7492 62.1831 50.792 63.8181 50.7867C65.4317 50.7813 66.1286 50.7116 67.4903 50.4114C70.5352 49.736 73.1834 48.1117 74.8935 45.8601C76.625 43.5872 77.3165 40.9818 76.8662 38.4623C76.7912 38.0495 76.5339 37.2454 76.3302 36.7951C75.8209 35.6532 74.7595 34.5221 73.6283 33.9003L73.2584 33.6966L73.371 33.8788Z" fill="black"/>
  <path d="M52.7106 34.4254C52.7213 34.4629 52.775 34.6881 52.8286 34.924C53.0055 35.7335 53.0162 35.7495 53.1931 35.8782C53.2896 35.9532 53.6273 36.1248 53.949 36.2695C54.9514 36.7091 55.3374 37.0147 55.6805 37.6258C55.8896 37.9957 55.986 37.9903 55.9003 37.6151C55.7663 37.0147 55.064 36.1998 54.4904 35.98C54.0508 35.8085 53.9114 35.6906 53.3057 34.9776C52.8232 34.4201 52.6409 34.2432 52.7106 34.4254Z" fill="black"/>
  <path d="M42.1068 34.6832C41.9889 34.7636 41.6297 34.9298 41.3027 35.0477C40.4664 35.3533 40.0858 35.5302 39.2817 36.0019C38.8904 36.2324 38.2417 36.5755 37.845 36.7631C37.4483 36.9508 36.9283 37.1974 36.6925 37.3099C36.2636 37.5136 35.9688 37.7066 35.9688 37.787C35.9688 37.8299 36.923 37.5726 37.7378 37.3046C38.3543 37.1009 39.1262 36.7792 39.598 36.5273C40.1716 36.2217 40.252 36.3075 39.8392 36.7792C39.598 37.0419 39.4532 37.2563 39.4532 37.3314C39.4532 37.4172 39.6302 37.3367 40.118 37.0258C40.8149 36.5862 40.9114 36.538 41.6458 36.2592L42.2569 36.0287L42.6107 36.1413C43.1897 36.3236 43.3291 36.42 43.908 37.0473C44.2136 37.3743 44.5513 37.6852 44.6532 37.7388C44.9695 37.8996 45.3983 37.9961 46.0738 38.0604C46.9047 38.1409 48.2932 38.3874 49.2045 38.6233C49.6012 38.7252 49.9335 38.8002 49.9443 38.7895C49.9764 38.7573 49.4725 38.4035 49.1723 38.2534C48.7863 38.0604 48.2771 37.8943 47.0816 37.5833C45.1678 37.0794 44.755 36.865 44.0581 36.0126C43.6346 35.4926 43.1254 35.0155 42.6536 34.6939C42.5196 34.5974 42.3909 34.5223 42.3641 34.5277C42.3427 34.5277 42.2248 34.5974 42.1068 34.6832Z" fill="black"/>
  <path d="M16.7716 41.1371C16.7608 41.1478 16.4392 41.1693 16.0532 41.1907C13.0137 41.3355 10.017 42.086 7.54033 43.3189C6.84879 43.662 5.77127 44.2785 5.80344 44.3161C5.81416 44.3214 6.02323 44.2464 6.27519 44.1391C7.79764 43.4959 10.3118 42.8097 12.1184 42.5416C14.3431 42.2093 17.2862 42.1557 19.4841 42.4076C23.3653 42.8472 24.9843 43.201 30.8221 44.8682C36.2312 46.4175 38.606 46.9643 41.1148 47.2538C41.9779 47.3556 43.8006 47.4039 44.2509 47.3395C44.4278 47.3127 44.5511 47.2913 44.5189 47.2859C41.088 46.8142 39.0134 46.2513 33.8778 44.4125C31.5512 43.5763 29.5731 42.9115 28.5706 42.622C25.7401 41.8126 22.8989 41.3355 19.9398 41.1746C19.1249 41.1318 16.8091 41.105 16.7716 41.1371Z" fill="black"/>
</svg>